<?xml version="1.0" encoding="UTF-8"?>
<!DOCTYPE svg PUBLIC "-//W3C//DTD SVG 1.1//EN" "http://www.w3.org/Graphics/SVG/1.1/DTD/svg11.dtd">
<!-- Creator: CorelDRAW X7 -->
<svg xmlns="http://www.w3.org/2000/svg" xml:space="preserve" width="0.8in" height="0.479998in" version="1.1" style="shape-rendering:geometricPrecision; text-rendering:geometricPrecision; image-rendering:optimizeQuality; fill-rule:evenodd; clip-rule:evenodd"
viewBox="0 0 800 480"
 xmlns:xlink="http://www.w3.org/1999/xlink">
 <defs>
  <style type="text/css">
   <![CDATA[
    .str0 {stroke:#23297A;stroke-width:18.8977}
    .str2 {stroke:#3FB01C;stroke-width:18.8977}
    .str1 {stroke:#686DBD;stroke-width:18.8977}
    .str3 {stroke:#7BF556;stroke-width:18.8977}
    .str6 {stroke:#C90606;stroke-width:18.8977}
    .str4 {stroke:#F4AB3B;stroke-width:18.8977}
    .str5 {stroke:#F4B200;stroke-width:18.8977}
    .str7 {stroke:#666666;stroke-width:4.72442}
    .fil0 {fill:none}
    .fil1 {fill:black}
    .fil2 {fill:white}
   ]]>
  </style>
 </defs>
 <g id="Layer_x0020_1">
  <metadata id="CorelCorpID_0Corel-Layer"/>
  <rect class="fil0" width="800" height="480"/>
  <polygon class="fil1" points="94,51 61,37 115,74 82,18 "/>
  <g id="_2205561941104">
   <path class="fil0 str0" d="M29 398c0,-201 86,-363 192,-363 106,0 192,162 192,363"/>
   <path class="fil0 str1" d="M55 216c34,-112 97,-181 166,-181 106,0 192,162 192,363"/>
   <path class="fil0 str2" d="M97 120c35,-55 79,-85 124,-85 106,0 192,162 192,363"/>
   <path class="fil0 str3" d="M221 35c106,0 192,162 192,363"/>
   <path class="fil0 str4" d="M317 83c59,65 96,185 96,315"/>
   <path class="fil0 str5" d="M357 141c36,68 56,160 56,257"/>
   <path class="fil0 str6" d="M387 216c17,55 26,118 26,182"/>
  </g>
  <g id="_2205561940816">
   <path class="fil2 str7" d="M142 178c9,0 18,3 25,9 8,-13 23,-22 40,-22 19,0 35,10 42,24 8,-8 19,-13 32,-13 24,0 43,16 43,35 0,20 -19,35 -43,35 -2,0 -4,0 -6,0 -1,11 -17,20 -36,20 -8,0 -14,-2 -20,-4 -4,8 -13,13 -23,13 -7,0 -13,-2 -18,-6 -5,3 -12,5 -19,5 -15,0 -28,-8 -30,-19 -15,-5 -27,-20 -27,-37 0,-22 18,-40 40,-40z"/>
   <path class="fil2 str7" d="M111 247c5,0 10,2 14,5 4,-7 13,-12 22,-12 11,0 19,5 23,13 5,-4 11,-7 18,-7 13,0 24,9 24,20 0,10 -11,19 -24,19 -1,0 -2,0 -3,0 -1,6 -10,11 -20,11 -4,0 -8,-1 -11,-2 -3,4 -7,7 -13,7 -4,0 -7,-1 -10,-4 -3,2 -7,3 -11,3 -8,0 -15,-4 -16,-10 -9,-3 -15,-11 -15,-21 0,-12 10,-22 22,-22z"/>
   <path class="fil2 str7" d="M349 214c-5,0 -10,2 -14,5 -4,-8 -12,-13 -22,-13 -10,0 -19,6 -23,14 -4,-4 -11,-7 -18,-7 -13,0 -24,9 -24,19 0,11 11,20 24,20 1,0 2,0 3,-1 1,7 10,11 21,11 4,0 7,0 11,-1 2,4 7,7 12,7 4,0 8,-2 10,-4 3,2 7,3 11,3 8,0 15,-4 16,-10 9,-3 15,-12 15,-21 0,-12 -10,-22 -22,-22z"/>
  </g>
 </g>
</svg>
