<?xml version="1.0" encoding="UTF-8"?>
<!DOCTYPE svg PUBLIC "-//W3C//DTD SVG 1.1//EN" "http://www.w3.org/Graphics/SVG/1.1/DTD/svg11.dtd">
<!-- Creator: CorelDRAW X7 -->
<svg xmlns="http://www.w3.org/2000/svg" xml:space="preserve" width="0.8in" height="0.479998in" version="1.1" style="shape-rendering:geometricPrecision; text-rendering:geometricPrecision; image-rendering:optimizeQuality; fill-rule:evenodd; clip-rule:evenodd"
viewBox="0 0 800 480"
 xmlns:xlink="http://www.w3.org/1999/xlink">
 <defs>
  <style type="text/css">
   <![CDATA[
    .str0 {stroke:#23297A;stroke-width:18.8977}
    .str2 {stroke:#3FB01C;stroke-width:18.8977}
    .str1 {stroke:#686DBD;stroke-width:18.8977}
    .str3 {stroke:#7BF556;stroke-width:18.8977}
    .str6 {stroke:#C90606;stroke-width:18.8977}
    .str4 {stroke:#F4AB3B;stroke-width:18.8977}
    .str5 {stroke:#F4B200;stroke-width:18.8977}
    .str7 {stroke:#666666;stroke-width:4.72442}
    .fil0 {fill:none}
    .fil1 {fill:black}
    .fil2 {fill:white}
   ]]>
  </style>
 </defs>
 <g id="Layer_x0020_1">
  <metadata id="CorelCorpID_0Corel-Layer"/>
  <rect class="fil0" width="800" height="480"/>
  <polygon class="fil1" points="312,43 320,9 293,68 343,26 "/>
  <g id="_2205563445696">
   <path class="fil0 str0" d="M29 427c0,-201 86,-363 192,-363 106,0 192,162 192,363"/>
   <path class="fil0 str1" d="M55 245c34,-112 97,-181 166,-181 106,0 192,162 192,363"/>
   <path class="fil0 str2" d="M97 149c35,-55 79,-85 124,-85 106,0 192,162 192,363"/>
   <path class="fil0 str3" d="M221 64c106,0 192,162 192,363"/>
   <path class="fil0 str4" d="M317 113c59,64 96,184 96,314"/>
   <path class="fil0 str5" d="M357 170c36,68 56,161 56,257"/>
   <path class="fil0 str6" d="M387 245c17,56 26,118 26,182"/>
  </g>
  <path class="fil2 str7" d="M135 237c11,0 22,4 30,11 9,-16 27,-27 48,-27 22,0 41,12 50,29 9,-9 23,-15 39,-15 27,0 50,19 50,42 0,23 -23,42 -50,42 -3,0 -6,0 -8,-1 -1,13 -20,24 -44,24 -8,0 -16,-1 -23,-4 -5,9 -15,16 -28,16 -8,0 -15,-3 -21,-8 -6,4 -14,6 -23,6 -18,0 -33,-10 -35,-23 -19,-6 -33,-24 -33,-44 0,-27 22,-48 48,-48z"/>
 </g>
</svg>
