<?xml version="1.0" encoding="UTF-8"?>
<!DOCTYPE svg PUBLIC "-//W3C//DTD SVG 1.1//EN" "http://www.w3.org/Graphics/SVG/1.1/DTD/svg11.dtd">
<!-- Creator: CorelDRAW X7 -->
<svg xmlns="http://www.w3.org/2000/svg" xml:space="preserve" width="0.8in" height="0.479998in" version="1.1" style="shape-rendering:geometricPrecision; text-rendering:geometricPrecision; image-rendering:optimizeQuality; fill-rule:evenodd; clip-rule:evenodd"
viewBox="0 0 800 480"
 xmlns:xlink="http://www.w3.org/1999/xlink">
 <defs>
  <style type="text/css">
   <![CDATA[
    .str0 {stroke:#23297A;stroke-width:18.8977}
    .str2 {stroke:#3FB01C;stroke-width:18.8977}
    .str1 {stroke:#686DBD;stroke-width:18.8977}
    .str3 {stroke:#7BF556;stroke-width:18.8977}
    .str6 {stroke:#C90606;stroke-width:18.8977}
    .str4 {stroke:#F4AB3B;stroke-width:18.8977}
    .str5 {stroke:#F4B200;stroke-width:18.8977}
    .fil0 {fill:none}
    .fil1 {fill:black}
    .fil2 {fill:#CCCCCC}
    .fil3 {fill:#6699FF;fill-rule:nonzero}
   ]]>
  </style>
 </defs>
 <g id="Layer_x0020_1">
  <metadata id="CorelCorpID_0Corel-Layer"/>
  <rect class="fil0" width="800" height="480"/>
  <polygon class="fil1" points="65,152 30,150 93,168 44,125 "/>
  <g id="_2205649165264">
   <path class="fil0 str0" d="M64 396c0,-200 86,-363 192,-363 106,0 192,163 192,363"/>
   <path class="fil0 str1" d="M90 215c34,-112 97,-182 166,-182 106,0 192,163 192,363"/>
   <path class="fil0 str2" d="M132 118c35,-54 79,-85 124,-85 106,0 192,163 192,363"/>
   <path class="fil0 str3" d="M256 33c106,0 192,163 192,363"/>
   <path class="fil0 str4" d="M352 82c59,65 96,185 96,314"/>
   <path class="fil0 str5" d="M392 140c36,68 56,160 56,256"/>
   <path class="fil0 str6" d="M422 215c17,55 26,118 26,181"/>
  </g>
  <g id="_2205649158800">
   <path class="fil2" d="M175 175c11,0 21,4 29,11 9,-16 27,-26 47,-26 21,0 39,11 47,28 9,-9 23,-15 38,-15 26,0 48,18 48,40 0,23 -22,40 -48,40 -3,0 -5,0 -8,0 -1,13 -19,23 -42,23 -8,0 -16,-2 -22,-4 -5,9 -15,15 -26,15 -8,0 -16,-3 -21,-7 -6,3 -14,6 -22,6 -17,0 -31,-10 -34,-22 -18,-6 -31,-23 -31,-43 0,-25 20,-46 45,-46z"/>
   <g>
    <path class="fil3" d="M327 264c0,4 1,6 0,8 0,2 -1,4 -3,4 -1,-1 -1,-3 -1,-5 1,-2 3,-3 4,-7z"/>
    <path class="fil3" d="M307 272c0,4 1,6 0,8 0,2 -1,4 -2,3 -2,0 -2,-2 -1,-4 0,-2 2,-3 3,-7z"/>
    <path class="fil3" d="M293 277c0,4 1,6 0,8 0,2 -1,4 -2,4 -2,-1 -2,-3 -2,-5 1,-2 3,-3 4,-7z"/>
    <path class="fil3" d="M277 283c0,4 1,6 0,8 0,2 -1,3 -2,3 -2,0 -2,-2 -1,-4 0,-2 2,-4 3,-7z"/>
    <path class="fil3" d="M257 286c-1,4 0,6 0,8 -1,2 -2,3 -3,3 -1,0 -1,-2 -1,-4 0,-2 2,-4 4,-7z"/>
    <path class="fil3" d="M236 292c0,4 1,6 1,8 -1,2 -2,4 -3,4 -2,-1 -2,-3 -1,-5 0,-2 2,-3 3,-7z"/>
    <path class="fil3" d="M221 288c0,4 1,6 0,8 0,2 -1,4 -3,4 -1,-1 -1,-3 -1,-5 1,-1 3,-3 4,-7z"/>
    <path class="fil3" d="M252 299c0,4 1,7 0,8 0,2 -1,4 -2,4 -2,0 -2,-2 -1,-4 0,-2 2,-4 3,-8z"/>
    <path class="fil3" d="M237 308c0,4 1,6 0,8 0,2 -1,4 -2,3 -2,0 -2,-2 -1,-4 0,-2 2,-3 3,-7z"/>
    <path class="fil3" d="M262 315c-1,4 0,6 0,8 -1,2 -1,4 -3,3 -1,0 -1,-2 -1,-4 1,-2 2,-3 4,-7z"/>
    <path class="fil3" d="M273 305c-1,4 0,6 0,8 -1,2 -2,4 -3,3 -2,0 -2,-2 -1,-4 0,-2 2,-3 4,-7z"/>
    <path class="fil3" d="M286 297c0,3 1,6 1,8 -1,2 -2,3 -3,3 -2,0 -2,-2 -1,-4 0,-2 2,-4 3,-7z"/>
    <path class="fil3" d="M222 306c0,4 1,6 1,8 -1,2 -2,3 -3,3 -2,0 -2,-2 -1,-4 0,-2 2,-4 3,-7z"/>
    <path class="fil3" d="M202 297c-1,4 0,6 0,8 0,2 -1,4 -3,3 -1,0 -1,-2 -1,-4 1,-2 2,-3 4,-7z"/>
    <path class="fil3" d="M210 308c-1,4 0,6 0,8 -1,2 -2,4 -3,4 -2,-1 -2,-3 -1,-5 0,-2 2,-3 4,-7z"/>
    <path class="fil3" d="M191 286c0,4 1,6 0,8 0,2 -1,4 -3,3 -1,0 -1,-2 -1,-4 1,-2 3,-3 4,-7z"/>
    <path class="fil3" d="M179 292c0,4 1,6 0,8 0,2 -1,4 -3,4 -1,-1 -1,-3 -1,-5 1,-1 3,-3 4,-7z"/>
    <path class="fil3" d="M185 305c0,4 1,6 1,8 -1,2 -2,4 -3,4 -2,-1 -2,-3 -1,-5 0,-2 2,-3 3,-7z"/>
    <path class="fil3" d="M196 316c-1,4 0,7 0,8 0,2 -1,4 -3,4 -1,-1 -1,-3 -1,-4 1,-2 2,-4 4,-8z"/>
   </g>
  </g>
 </g>
</svg>
