<?xml version="1.0" encoding="UTF-8"?>
<!DOCTYPE svg PUBLIC "-//W3C//DTD SVG 1.1//EN" "http://www.w3.org/Graphics/SVG/1.1/DTD/svg11.dtd">
<!-- Creator: CorelDRAW X7 -->
<svg xmlns="http://www.w3.org/2000/svg" xml:space="preserve" width="0.8in" height="0.479998in" version="1.1" style="shape-rendering:geometricPrecision; text-rendering:geometricPrecision; image-rendering:optimizeQuality; fill-rule:evenodd; clip-rule:evenodd"
viewBox="0 0 800 480"
 xmlns:xlink="http://www.w3.org/1999/xlink">
 <defs>
  <style type="text/css">
   <![CDATA[
    .str0 {stroke:#23297A;stroke-width:18.8977}
    .str2 {stroke:#3FB01C;stroke-width:18.8977}
    .str1 {stroke:#686DBD;stroke-width:18.8977}
    .str3 {stroke:#7BF556;stroke-width:18.8977}
    .str6 {stroke:#C90606;stroke-width:18.8977}
    .str4 {stroke:#F4AB3B;stroke-width:18.8977}
    .str5 {stroke:#F4B200;stroke-width:18.8977}
    .str7 {stroke:#666666;stroke-width:4.72442}
    .fil0 {fill:none}
    .fil1 {fill:black}
    .fil3 {fill:#F4B200}
    .fil2 {fill:yellow}
    .fil4 {fill:white}
   ]]>
  </style>
 </defs>
 <g id="Layer_x0020_1">
  <metadata id="CorelCorpID_0Corel-Layer"/>
  <rect class="fil0" width="800" height="480"/>
  <polygon class="fil1" points="381,146 395,114 357,167 414,136 "/>
  <g id="_2205561152224">
   <path class="fil0 str0" d="M14 427c0,-201 86,-363 192,-363 106,0 192,162 192,363"/>
   <path class="fil0 str1" d="M39 245c35,-112 98,-181 167,-181 106,0 192,162 192,363"/>
   <path class="fil0 str2" d="M82 149c35,-55 78,-85 124,-85 106,0 192,162 192,363"/>
   <path class="fil0 str3" d="M206 64c106,0 192,162 192,363"/>
   <path class="fil0 str4" d="M302 113c59,64 96,184 96,314"/>
   <path class="fil0 str5" d="M341 170c36,68 57,161 57,257"/>
   <path class="fil0 str6" d="M372 245c17,56 26,118 26,182"/>
  </g>
  <g id="_2205561151872">
   <polygon class="fil2" points="251,160 263,188 294,179 285,210 314,227 285,243 294,274 263,265 246,294 230,265 198,274 208,243 179,227 207,211 207,174 242,182 "/>
   <circle class="fil3" cx="246" cy="227" r="48"/>
  </g>
  <path class="fil4 str7" d="M105 233c12,0 23,4 32,12 10,-17 29,-29 52,-29 23,0 44,13 53,31 10,-10 24,-16 41,-16 30,0 54,20 54,44 0,25 -24,45 -54,45 -3,0 -6,0 -8,-1 -1,14 -22,26 -47,26 -9,0 -17,-2 -25,-4 -5,9 -16,16 -29,16 -9,0 -17,-3 -23,-8 -6,4 -15,7 -24,7 -19,0 -35,-11 -38,-25 -20,-6 -34,-25 -34,-48 0,-27 22,-50 50,-50z"/>
 </g>
</svg>
