<?xml version="1.0" encoding="UTF-8"?>
<!DOCTYPE svg PUBLIC "-//W3C//DTD SVG 1.1//EN" "http://www.w3.org/Graphics/SVG/1.1/DTD/svg11.dtd">
<!-- Creator: CorelDRAW X7 -->
<svg xmlns="http://www.w3.org/2000/svg" xml:space="preserve" width="0.8in" height="0.479998in" version="1.1" style="shape-rendering:geometricPrecision; text-rendering:geometricPrecision; image-rendering:optimizeQuality; fill-rule:evenodd; clip-rule:evenodd"
viewBox="0 0 800 480"
 xmlns:xlink="http://www.w3.org/1999/xlink">
 <defs>
  <style type="text/css">
   <![CDATA[
    .fil0 {fill:none}
    .fil1 {fill:#23297A}
    .fil2 {fill:#6598FD}
   ]]>
  </style>
 </defs>
 <g id="Layer_x0020_1">
  <metadata id="CorelCorpID_0Corel-Layer"/>
  <rect class="fil0" width="800" height="480"/>
  <g id="_2205550329056">
   <path class="fil1" d="M15 312c0,64 14,141 63,156 69,22 93,-54 101,-108 13,-88 -22,-145 -44,-218 -10,-35 -29,-99 -29,-134l-15 0c-1,55 -43,174 -60,224 -8,24 -16,50 -16,80z"/>
   <path class="fil2" d="M98 54c-9,37 -16,70 -28,106 -11,35 -25,68 -34,103 -16,62 -6,195 62,195 71,0 79,-134 63,-196 -13,-48 -35,-98 -49,-153 -4,-15 -9,-43 -14,-55z"/>
  </g>
 </g>
</svg>
