<?xml version="1.0" encoding="UTF-8"?>
<!DOCTYPE svg PUBLIC "-//W3C//DTD SVG 1.1//EN" "http://www.w3.org/Graphics/SVG/1.1/DTD/svg11.dtd">
<!-- Creator: CorelDRAW X7 -->
<svg xmlns="http://www.w3.org/2000/svg" xml:space="preserve" width="0.8in" height="0.479998in" version="1.1" style="shape-rendering:geometricPrecision; text-rendering:geometricPrecision; image-rendering:optimizeQuality; fill-rule:evenodd; clip-rule:evenodd"
viewBox="0 0 800 480"
 xmlns:xlink="http://www.w3.org/1999/xlink">
 <defs>
  <style type="text/css">
   <![CDATA[
    .fil0 {fill:none}
    .fil1 {fill:#6598FE}
   ]]>
  </style>
 </defs>
 <g id="Layer_x0020_1">
  <metadata id="CorelCorpID_0Corel-Layer"/>
  <rect class="fil0" width="800" height="480"/>
  <g id="_2205565647232">
   <path class="fil1" d="M298 196c0,29 31,19 31,-14l-2 -46c-3,4 -1,1 -4,6l-12 21c-5,9 -13,20 -13,33z"/>
   <path class="fil1" d="M232 70c0,20 26,21 30,-15l-2 -47c-5,4 -28,42 -28,62z"/>
   <path class="fil1" d="M68 443c0,32 28,20 30,-9l-2 -48c-8,6 -11,18 -16,27 -4,7 -12,21 -12,30z"/>
   <path class="fil1" d="M58 215c0,10 4,13 10,17 28,-7 19,-46 19,-79 -6,6 -10,18 -17,29 -6,9 -12,18 -12,33z"/>
   <path class="fil1" d="M294 296c25,0 16,-51 16,-76 -10,11 -46,76 -16,76z"/>
   <path class="fil1" d="M158 110c0,25 20,24 28,2 4,-14 1,-40 1,-61l-16 27c-5,9 -13,23 -13,32z"/>
   <path class="fil1" d="M68 334c0,12 14,23 24,5 10,-18 4,-35 4,-67 -4,3 -28,44 -28,62z"/>
   <path class="fil1" d="M196 286c0,1 -1,1 -1,2l-3 6c-9,18 -36,53 -19,68 14,12 23,-14 25,-24l-2 -52z"/>
   <path class="fil1" d="M232 220c13,0 19,-21 19,-31 0,-10 -2,-10 -3,-21 0,-8 0,-17 0,-24l-5 8c-2,4 -3,6 -5,10 -4,6 -8,12 -11,17 -5,10 -13,41 5,41z"/>
   <path class="fil1" d="M165 448c0,15 -2,24 12,24 10,0 16,-20 17,-31l-3 -45 -7 12c-6,12 -19,30 -19,40z"/>
   <path class="fil1" d="M279 396c0,15 -2,24 12,24 24,0 15,-60 14,-76l-1 3c0,0 -1,2 -2,3 -7,15 -23,35 -23,46z"/>
   <path class="fil1" d="M163 239c0,11 2,14 9,19 32,-8 13,-52 19,-79 -3,3 -28,46 -28,60z"/>
   <path class="fil1" d="M129 77l-22 37c-2,6 -5,17 -4,25 2,12 6,12 19,12 18,-33 7,-36 7,-74z"/>
   <path class="fil1" d="M15 382c0,38 30,11 29,-5l-3 -52c0,0 0,0 0,1 -2,8 -26,36 -26,56z"/>
   <polygon class="fil1" points="129,77 132,77 130,74 "/>
  </g>
 </g>
</svg>
