<?xml version="1.0" encoding="UTF-8"?>
<!DOCTYPE svg PUBLIC "-//W3C//DTD SVG 1.1//EN" "http://www.w3.org/Graphics/SVG/1.1/DTD/svg11.dtd">
<!-- Creator: CorelDRAW X7 -->
<svg xmlns="http://www.w3.org/2000/svg" xml:space="preserve" width="1000px" height="707px" version="1.1" style="shape-rendering:geometricPrecision; text-rendering:geometricPrecision; image-rendering:optimizeQuality; fill-rule:evenodd; clip-rule:evenodd"
viewBox="0 0 1000 707"
 xmlns:xlink="http://www.w3.org/1999/xlink">
 <defs>
  <style type="text/css">
   <![CDATA[
    .fil0 {fill:black}
    .fil1 {fill:#FED32A}
   ]]>
  </style>
 </defs>
 <g id="Layer_x0020_1">
  <metadata id="CorelCorpID_0Corel-Layer"/>
  <path class="fil0" d="M23 110c0,3 0,4 2,7 2,2 5,3 8,3l98 0c2,0 3,0 5,-1 1,0 2,-1 3,-2 2,-3 3,-6 2,-9 -1,-2 -3,-5 -4,-7l-4 -7c-5,-10 -10,-19 -16,-29l-2 -3c-1,-3 -3,-6 -4,-8l-3 -5c0,0 0,0 0,-1 0,0 0,0 -1,-1l-5 -8c0,-1 0,-1 0,-1 -3,-6 -10,-21 -14,-24 -1,-2 -3,-3 -5,-3 -3,0 -6,2 -7,4 -7,12 -53,88 -53,95z"/>
  <path class="fil1" d="M82 17c-1,1 -1,1 -2,2l-3 6c-2,3 -3,5 -5,8 -3,5 -6,11 -9,16 -3,6 -6,11 -9,16 -3,6 -6,11 -10,17 -1,2 -3,5 -4,8 -2,2 -3,5 -5,8 -1,2 -6,11 -6,12 -1,2 0,4 2,4 2,0 10,0 13,0 27,0 55,0 83,0 1,0 5,0 6,0 2,0 3,-2 2,-4 0,-1 -1,-3 -2,-4 -1,-3 -3,-6 -4,-8 -2,-3 -3,-6 -5,-9 -1,-2 -3,-5 -4,-8 -5,-8 -9,-16 -14,-24 -2,-3 -3,-6 -5,-9 -1,-2 -3,-5 -4,-8 -2,-2 -3,-5 -5,-8 -1,-3 -3,-5 -4,-8 -1,-1 -2,-3 -3,-4 0,-1 -1,-4 -3,-3z"/>
  <path class="fil0" d="M65 59c0,1 -1,1 0,1 1,0 0,-1 2,-4 2,-3 7,-4 10,4 2,6 3,13 4,20 1,6 1,3 -2,9 -1,3 -4,11 -2,14 1,1 3,2 4,1 3,-2 3,-10 3,-13 0,-7 -2,-5 2,-12l9 -20c1,-2 5,-9 5,-10l-6 0c-3,7 -6,15 -8,23 -1,1 -2,7 -3,8 0,-1 -2,-18 -5,-25 -1,-2 -2,-5 -5,-6 -1,-1 -2,-1 -3,0 -5,1 -5,5 -5,10z"/>
 </g>
</svg>
