<?xml version="1.0" encoding="UTF-8"?>
<!DOCTYPE svg PUBLIC "-//W3C//DTD SVG 1.1//EN" "http://www.w3.org/Graphics/SVG/1.1/DTD/svg11.dtd">
<!-- Creator: CorelDRAW X7 -->
<svg xmlns="http://www.w3.org/2000/svg" xml:space="preserve" width="1in" height="0.599997in" version="1.1" style="shape-rendering:geometricPrecision; text-rendering:geometricPrecision; image-rendering:optimizeQuality; fill-rule:evenodd; clip-rule:evenodd"
viewBox="0 0 1000 600"
 xmlns:xlink="http://www.w3.org/1999/xlink">
 <defs>
  <style type="text/css">
   <![CDATA[
    .fil0 {fill:none}
    .fil1 {fill:#F4AB3B}
    .fil2 {fill:#F7E652}
   ]]>
  </style>
 </defs>
 <g id="Layer_x0020_1">
  <metadata id="CorelCorpID_0Corel-Layer"/>
  <rect class="fil0" width="1000" height="600"/>
  <g id="radiation_x0020_red">
   <circle class="fil1" cx="317" cy="305" r="48"/>
   <g>
    <path class="fil1" d="M217 160c77,139 24,85 101,83 34,3 34,10 49,13l61 -110c10,-18 22,-37 31,-56 16,-33 28,-31 -10,-50 -76,-34 -143,-29 -210,-15 -67,18 -73,23 -71,36 5,23 23,51 49,99z"/>
    <path class="fil2" d="M188 64c1,11 81,163 90,173 19,-6 36,-17 81,-1 12,-12 93,-171 93,-175 -26,-18 -91,-34 -131,-33 -28,1 -112,16 -133,36z"/>
   </g>
   <g>
    <path class="fil1" d="M497 289c-158,-4 -85,-23 -123,45 -19,28 -25,24 -35,35l64 109c10,17 21,37 33,55 20,30 13,40 48,16 68,-48 97,-108 118,-173 19,-67 18,-75 5,-80 -22,-7 -56,-6 -110,-7z"/>
    <path class="fil2" d="M595 312c-10,-4 -182,-12 -195,-10 -4,20 -3,40 -40,71 4,16 101,166 104,169 28,-14 75,-62 95,-97 13,-25 42,-105 36,-133z"/>
   </g>
   <g>
    <path class="fil1" d="M247 467c74,-140 59,-66 14,-130 -16,-30 -10,-33 -16,-48l-126 10c-19,2 -42,2 -63,5 -36,5 -42,-6 -36,36 13,82 54,135 103,183 51,46 59,49 69,39 17,-16 30,-47 55,-95z"/>
    <path class="fil2" d="M183 545c9,-7 92,-158 95,-171 -15,-12 -34,-20 -45,-67 -17,-3 -194,17 -197,18 -1,32 21,95 44,128 17,23 75,84 103,92z"/>
   </g>
  </g>
 </g>
</svg>
