<?xml version="1.0" encoding="UTF-8"?>
<!DOCTYPE svg PUBLIC "-//W3C//DTD SVG 1.1//EN" "http://www.w3.org/Graphics/SVG/1.1/DTD/svg11.dtd">
<!-- Creator: CorelDRAW X7 -->
<svg xmlns="http://www.w3.org/2000/svg" xml:space="preserve" width="0.8in" height="0.479998in" version="1.1" style="shape-rendering:geometricPrecision; text-rendering:geometricPrecision; image-rendering:optimizeQuality; fill-rule:evenodd; clip-rule:evenodd"
viewBox="0 0 800 480"
 xmlns:xlink="http://www.w3.org/1999/xlink">
 <defs>
  <style type="text/css">
   <![CDATA[
    .fil0 {fill:none}
    .fil1 {fill:#333333}
    .fil2 {fill:#C90606}
   ]]>
  </style>
 </defs>
 <g id="Layer_x0020_1">
  <metadata id="CorelCorpID_0Corel-Layer"/>
  <rect class="fil0" y="-160" width="800" height="800"/>
  <g id="thermometer">
   <path class="fil1" d="M79 385c0,-11 4,-22 9,-30 1,-3 2,-4 4,-6 5,-6 8,-10 16,-14l0 -245c0,-16 -4,-44 20,-51 15,-5 28,2 34,13 5,9 4,24 4,38l0 245c8,5 11,8 16,14 1,2 2,3 4,5 9,17 12,37 3,55 -1,3 -2,6 -5,9 -17,25 -53,33 -80,15 -5,-4 -8,-7 -11,-11 -2,-2 -2,-2 -4,-4 -5,-8 -10,-22 -10,-33zm54 -377l8 0c12,1 24,5 33,13 25,21 21,42 21,71l0 229c3,1 4,3 6,5 2,2 3,3 5,6 4,5 6,8 9,14 15,31 11,70 -12,95 -6,8 -6,8 -16,15 -16,12 -32,16 -54,16 -57,0 -105,-64 -73,-127 2,-6 5,-9 8,-13 2,-4 7,-10 11,-11 0,-62 0,-123 0,-184 0,-18 -2,-76 3,-89 5,-16 17,-30 33,-36 6,-2 12,-4 18,-4z"/>
   <path class="fil2" d="M122 344c-11,1 -29,21 -29,37 0,10 0,14 5,23 6,14 21,24 35,24 14,0 25,-2 35,-12 15,-15 17,-40 3,-58 -3,-5 -13,-13 -20,-14 0,-8 1,-147 0,-152 -4,-14 -24,-13 -28,0 -2,5 -1,56 -1,64 0,30 0,59 0,88z"/>
  </g>
 </g>
</svg>
